<svg width="12" height="12" viewBox="0 0 12 12" fill="none" xmlns="http://www.w3.org/2000/svg">
<path fill-rule="evenodd" clip-rule="evenodd" d="M4.84266 6.15771L9.20677 2.1574C9.5749 1.81995 9.59978 1.24797 9.26233 0.879838C9.24462 0.86052 9.22609 0.841981 9.20677 0.824273L9.12827 0.752323C8.76125 0.415892 8.19793 0.415892 7.8309 0.752323L2.70598 5.45003C2.31514 5.80829 2.28873 6.41556 2.64699 6.8064C2.66579 6.82691 2.68547 6.84659 2.70598 6.86539L7.8309 11.5631C8.19793 11.8995 8.76125 11.8995 9.12827 11.5631L9.20677 11.4911C9.5749 11.1537 9.59978 10.5817 9.26233 10.2136C9.24462 10.1943 9.22609 10.1757 9.20677 10.158L4.84266 6.15771Z" fill="#6D7881"/>
</svg>
