<svg width="35" height="35" viewBox="0 0 35 35" fill="none" xmlns="http://www.w3.org/2000/svg">
<path fill-rule="evenodd" clip-rule="evenodd" d="M17.5 35C27.165 35 35 27.165 35 17.5C35 7.83502 27.165 0 17.5 0C7.83502 0 0 7.83502 0 17.5C0 27.165 7.83502 35 17.5 35ZM11.1934 16.2539L10.0312 13.8906H8.07324L10.0605 17.416L8.01953 21H9.99707L11.1934 18.5928L12.3896 21H14.3623L12.3262 17.416L14.3086 13.8906H12.3555L11.1934 16.2539ZM17.6264 16.9766L16.3178 13.8906H14.4672L16.7572 18.4463V21H18.5004V18.4463L20.7855 13.8906H18.9398L17.6264 16.9766ZM26.7303 21V19.6816H23.3354L26.6961 14.7695V13.8906H26.1443H25.5047H21.1688V15.2139H24.5854L21.1932 20.0967V21H21.5838H22.4334H26.7303Z" fill="white"/>
</svg>
