<svg width="16" height="12" viewBox="0 0 16 12" fill="none" xmlns="http://www.w3.org/2000/svg">
<g clip-path="url(#clip0_4709_106187)">
<path fill-rule="evenodd" clip-rule="evenodd" d="M0.603774 2.31979H15.3962C15.7295 2.31979 16 2.01507 16 1.6396C16 1.26414 15.7295 0.959412 15.3962 0.959412H0.603774C0.270491 0.959412 0 1.26414 0 1.6396C0 2.01507 0.270491 2.31979 0.603774 2.31979Z" fill="white"/>
<path fill-rule="evenodd" clip-rule="evenodd" d="M0.603774 6.68015H15.3962C15.7295 6.68015 16 6.37542 16 5.99996C16 5.62449 15.7295 5.31976 15.3962 5.31976H0.603774C0.270491 5.31976 0 5.62449 0 5.99996C0 6.37542 0.270491 6.68015 0.603774 6.68015Z" fill="white"/>
<path fill-rule="evenodd" clip-rule="evenodd" d="M0.603774 11.0406H15.3962C15.7295 11.0406 16 10.7358 16 10.3604C16 9.9849 15.7295 9.68018 15.3962 9.68018H0.603774C0.270491 9.68018 0 9.9849 0 10.3604C0 10.7358 0.270491 11.0406 0.603774 11.0406Z" fill="white"/>
</g>
<defs>
<clipPath id="clip0_4709_106187">
<rect width="16" height="10.0812" fill="white" transform="translate(0 0.959412)"/>
</clipPath>
</defs>
</svg>
