<svg width="16" height="16" viewBox="0 0 16 16" fill="none" xmlns="http://www.w3.org/2000/svg">
<g opacity="0.7">
<path fill-rule="evenodd" clip-rule="evenodd" d="M14.6667 16H10.6667C9.93029 16 9.33333 15.403 9.33333 14.6667V10.6667C9.33333 9.93029 9.93029 9.33333 10.6667 9.33333H14.6667C15.403 9.33333 16 9.93029 16 10.6667V14.6667C16 15.403 15.403 16 14.6667 16ZM14.6667 10.6667H10.6667V14.6667H14.6667V10.6667ZM14.6667 6.66667H10.6667C9.93029 6.66667 9.33333 6.06971 9.33333 5.33333V1.33333C9.33333 0.596954 9.93029 0 10.6667 0H14.6667C15.403 0 16 0.596954 16 1.33333V5.33333C16 6.06971 15.403 6.66667 14.6667 6.66667ZM14.6667 1.33333H10.6667V5.33333H14.6667V1.33333ZM5.33333 16H1.33333C0.596954 16 0 15.403 0 14.6667V10.6667C0 9.93029 0.596954 9.33333 1.33333 9.33333H5.33333C6.06971 9.33333 6.66667 9.93029 6.66667 10.6667V14.6667C6.66667 15.403 6.06971 16 5.33333 16ZM5.33333 10.6667H1.33333V14.6667H5.33333V10.6667ZM5.33333 6.66667H1.33333C0.596954 6.66667 0 6.06971 0 5.33333V1.33333C0 0.596954 0.596954 0 1.33333 0H5.33333C6.06971 0 6.66667 0.596954 6.66667 1.33333V5.33333C6.66667 6.06971 6.06971 6.66667 5.33333 6.66667ZM5.33333 1.33333H1.33333V5.33333H5.33333V1.33333Z" fill="white"/>
</g>
</svg>
