<svg width="16" height="17" viewBox="0 0 16 17" fill="none" xmlns="http://www.w3.org/2000/svg">
<path fill-rule="evenodd" clip-rule="evenodd" d="M9.10956 1.61644C9.10956 1.66264 9.10677 1.70819 9.10135 1.75292C11.2649 2.29712 13.0801 4.36582 13.0801 6.61444C13.0801 9.11147 13.73 11.5058 14.8185 12.6317L15.0094 12.8291C15.5781 13.4174 15.3782 13.895 14.5619 13.895H14.2882H7.99985H1.71146H1.43776C0.622033 13.895 0.421179 13.4178 0.990307 12.8291L1.18114 12.6317C2.26965 11.5058 2.91959 9.11147 2.91959 6.61444C2.91959 4.36582 4.73475 2.29712 6.89834 1.75292C6.89292 1.70819 6.89013 1.66264 6.89013 1.61644C6.89013 0.999849 7.38697 0.5 7.99985 0.5C8.61272 0.5 9.10956 0.999849 9.10956 1.61644ZM3.14602 12.4064C3.79931 11.117 4.39921 8.57264 4.39921 6.61444C4.39921 4.82893 6.1917 3.10267 7.99985 3.10267C9.80799 3.10267 11.6005 4.82893 11.6005 6.61444C11.6005 8.53135 12.0971 11.0576 12.9238 12.4064H7.99985H3.14602ZM9.84937 14.6393C9.84937 15.6669 9.02131 16.5 7.99985 16.5C6.97838 16.5 6.15032 15.6669 6.15032 14.6393H9.84937Z" fill="white"/>
</svg>
