<svg width="16" height="17" viewBox="0 0 16 17" fill="none" xmlns="http://www.w3.org/2000/svg">
<g opacity="0.7">
<path fill-rule="evenodd" clip-rule="evenodd" d="M8.00107 6.13684C6.69889 6.13684 5.63899 7.19603 5.63899 8.49821C5.63899 9.8004 6.69889 10.8596 8.00107 10.8596C9.30326 10.8596 10.3624 9.8004 10.3624 8.49821C10.3624 7.19603 9.30326 6.13684 8.00107 6.13684ZM8.00107 12.0324C6.05208 12.0324 4.46759 10.4465 4.46759 8.49821C4.46759 6.54994 6.05208 4.96402 8.00107 4.96402C9.95006 4.96402 11.5346 6.54994 11.5346 8.49821C11.5346 10.4465 9.95006 12.0324 8.00107 12.0324ZM7.35641 15.3336H8.64287L8.868 14.0021C8.90231 13.7748 9.07169 13.5897 9.29825 13.5333C9.77281 13.4111 10.2224 13.2238 10.6362 12.9772C10.8377 12.8593 11.0871 12.8686 11.2751 13.0044L12.3743 13.787L13.2863 12.875L12.503 11.7715C12.37 11.5836 12.36 11.3334 12.4765 11.134C12.7231 10.7202 12.9103 10.27 13.0326 9.79539C13.089 9.57312 13.2734 9.40374 13.5014 9.36514L14.8336 9.14359L14.8365 7.85641L13.505 7.63128C13.2777 7.59626 13.0919 7.42759 13.0354 7.20032C12.9132 6.72718 12.726 6.27692 12.4808 5.86311C12.3622 5.66085 12.3722 5.40999 12.5073 5.22417L13.2891 4.12496L12.37 3.20514L11.2851 3.99917C11.0957 4.13282 10.8463 4.14354 10.6462 4.02562C10.2195 3.77404 9.75781 3.58465 9.27538 3.46386C9.05097 3.4074 8.88015 3.22158 8.84156 2.99073L8.61929 1.66925H7.33283L7.10484 3.01074C7.06481 3.23516 6.89757 3.41884 6.67602 3.47959C6.21075 3.59966 5.76192 3.78834 5.33953 4.04134C5.14084 4.15998 4.88784 4.14998 4.69844 4.01633L3.60495 3.23659L2.69299 4.14783L3.48274 5.25776C3.6171 5.4443 3.62925 5.69301 3.51275 5.89242C3.27047 6.30337 3.08679 6.75434 2.96672 7.23319C2.91026 7.45761 2.72515 7.62842 2.49359 7.66773L1.17139 7.89V9.17575L2.51289 9.40445C2.7373 9.44305 2.92098 9.611 2.98173 9.83256C3.10251 10.2993 3.29191 10.7481 3.54491 11.169C3.66284 11.3706 3.65212 11.6222 3.51919 11.8109L2.73945 12.9051L3.65855 13.8242L4.75991 13.0266C4.93429 12.8986 5.1973 12.8836 5.39384 12.9958C5.81123 13.2352 6.25149 13.4161 6.70389 13.5333C6.92616 13.5897 7.09555 13.7741 7.13414 14.0021L7.35641 15.3336ZM8.69076 16.5H7.30495C6.75821 16.5 6.2958 16.1083 6.20503 15.5695L6.03636 14.5524C5.72118 14.4502 5.41957 14.3259 5.13727 14.1829L4.28606 14.789C3.85795 15.0963 3.23259 15.0463 2.85451 14.6689L1.8768 13.6905C1.48872 13.3067 1.43726 12.7035 1.75602 12.2561L2.35136 11.4278C2.19627 11.1305 2.06477 10.8181 1.95971 10.4994L0.929111 10.3228C0.390941 10.2321 0 9.77038 0 9.22363V7.84212C0 7.29537 0.390941 6.83296 0.929111 6.74219L1.93326 6.57281C2.03475 6.24977 2.16268 5.93601 2.31277 5.63798L1.7067 4.78606C1.39009 4.34223 1.44012 3.73902 1.82677 3.35166L2.80806 2.37323C3.1797 1.9973 3.81436 1.94584 4.24389 2.25316L5.07437 2.85208C5.37455 2.69627 5.68687 2.56406 6.00348 2.46042L6.1793 1.42983C6.27007 0.891656 6.73248 0.5 7.27851 0.5H8.66074C9.20749 0.5 9.6699 0.891656 9.75995 1.43054L9.92933 2.43326C10.2581 2.5369 10.584 2.67055 10.9013 2.83278L11.7418 2.23386C12.1678 1.92654 12.7967 1.97657 13.1734 2.35465L14.1518 3.33236C14.5392 3.71615 14.5906 4.32007 14.2719 4.76676L13.6737 5.60511C13.8237 5.90028 13.9531 6.21332 14.0589 6.53708L15.0752 6.70932C15.6184 6.8008 16.0064 7.26393 15.9986 7.81067V9.19076C15.9986 9.7375 15.6083 10.1999 15.0695 10.2907L14.0532 10.4601C13.9538 10.7674 13.8237 11.0804 13.6665 11.3913L14.2661 12.2325C14.5827 12.6778 14.532 13.2817 14.1454 13.6676L13.1676 14.6461C12.786 15.0249 12.1585 15.0727 11.7318 14.7654L10.8942 14.1672C10.599 14.318 10.286 14.4474 9.96221 14.5524L9.78997 15.5695C9.6992 16.1083 9.23679 16.5 8.69076 16.5Z" fill="white"/>
</g>
</svg>
