<svg width="25" height="20" viewBox="0 0 25 20" fill="none" xmlns="http://www.w3.org/2000/svg">
<path d="M18.2328 15.6631L20.8127 12.9775H11.2212C9.63847 12.9775 8.35645 14.1619 8.35645 15.6297L18.2328 15.6631Z" fill="white"/>
<path d="M14.0385 20L16.7925 17.1143H14.5608C12.7406 17.1143 11.1421 18.2819 10.5723 19.9833L14.0385 20Z" fill="white"/>
<path d="M22.1585 11.5095L24.8175 8.65715L2.7065 8.64047L0 11.5095H22.1585Z" fill="white"/>
<path d="M6.8536 4.30366L4.09962 7.17281H13.6752C15.258 7.17281 16.54 5.88836 16.54 4.30366H6.8536Z" fill="white"/>
<path d="M10.9047 0L8.19824 2.86906H10.4299C12.2501 2.86906 13.8487 1.70142 14.4184 0H10.9047Z" fill="white"/>
</svg>
