<svg width="35" height="36" viewBox="0 0 35 36" fill="none" xmlns="http://www.w3.org/2000/svg">
<path d="M35 17.5156C35 27.1806 27.165 35.0156 17.5 35.0156C7.83502 35.0156 0 27.1806 0 17.5156C0 7.85064 7.83502 0.015625 17.5 0.015625C27.165 0.015625 35 7.85064 35 17.5156Z" fill="#B489D1"/>
<path d="M13.9375 20.5312C13.9375 20.3281 13.9062 20.1458 13.8438 19.9844C13.7865 19.8177 13.6771 19.6667 13.5156 19.5312C13.3542 19.3906 13.1276 19.2526 12.8359 19.1172C12.5443 18.9818 12.1667 18.841 11.7031 18.6952C11.1875 18.5285 10.6979 18.341 10.2344 18.1327C9.77604 17.9244 9.36979 17.6823 9.01562 17.4062C8.66667 17.125 8.39062 16.7995 8.1875 16.4297C7.98958 16.0599 7.89062 15.6302 7.89062 15.1406C7.89062 14.6667 7.99479 14.237 8.20312 13.8516C8.41146 13.4609 8.70312 13.1276 9.07812 12.8516C9.45312 12.5703 9.89583 12.3542 10.4062 12.2031C10.9219 12.0521 11.487 11.9766 12.1016 11.9766C12.9401 11.9766 13.6719 12.1276 14.2969 12.4297C14.9219 12.7318 15.4062 13.1458 15.75 13.6719C16.099 14.1979 16.2734 14.7995 16.2734 15.4766H13.9453C13.9453 15.1432 13.875 14.8516 13.7344 14.6016C13.599 14.3464 13.3906 14.1458 13.1094 14C12.8333 13.8542 12.4844 13.7812 12.0625 13.7812C11.6562 13.7812 11.3177 13.8438 11.0469 13.9688C10.776 14.0884 10.5729 14.2526 10.4375 14.4609C10.3021 14.6641 10.2344 14.8932 10.2344 15.1484C10.2344 15.3411 10.2812 15.5156 10.375 15.6719C10.474 15.8281 10.6198 15.974 10.8125 16.1094C11.0052 16.2448 11.2422 16.3724 11.5234 16.4922C11.8047 16.612 12.1302 16.7291 12.5 16.8438C13.1198 17.0311 13.6641 17.2422 14.1328 17.4766C14.6068 17.7109 15.0026 17.974 15.3203 18.2656C15.638 18.5573 15.8776 18.8879 16.0391 19.2577C16.2005 19.6275 16.2812 20.0469 16.2812 20.5156C16.2812 21.0104 16.1849 21.453 15.9922 21.8438C15.7995 22.2343 15.5208 22.565 15.1562 22.8358C14.7917 23.1067 14.3568 23.3125 13.8516 23.4531C13.3464 23.5938 12.7812 23.6641 12.1562 23.6641C11.5938 23.6641 11.0391 23.591 10.4922 23.4452C9.94531 23.2942 9.44792 23.0677 9 22.7656C8.55729 22.4635 8.20312 22.0781 7.9375 21.6094C7.67188 21.1406 7.53906 20.5858 7.53906 19.9452H9.89062C9.89062 20.2994 9.94531 20.5989 10.0547 20.8438C10.1641 21.0884 10.3177 21.2865 10.5156 21.4375C10.7188 21.5885 10.9583 21.6979 11.2344 21.7656C11.5156 21.8333 11.8229 21.8672 12.1562 21.8672C12.5625 21.8672 12.8958 21.8098 13.1562 21.6952C13.4219 21.5806 13.6172 21.4218 13.7422 21.2188C13.8724 21.0156 13.9375 20.7865 13.9375 20.5312Z" fill="white"/>
<path d="M24.6287 19.7344H26.9647C26.9178 20.5 26.7069 21.1796 26.3319 21.7733C25.9621 22.3671 25.4439 22.8307 24.7772 23.1641C24.1157 23.4974 23.3189 23.6641 22.3866 23.6641C21.6574 23.6641 21.0037 23.5391 20.4256 23.2891C19.8475 23.0339 19.3527 22.6692 18.9412 22.1952C18.535 21.7213 18.2251 21.1484 18.0116 20.4766C17.798 19.8047 17.6912 19.052 17.6912 18.2188V17.4297C17.6912 16.5964 17.8006 15.8438 18.0194 15.1719C18.2433 14.4948 18.561 13.9193 18.9725 13.4453C19.3892 12.9714 19.8866 12.6068 20.4647 12.3516C21.0428 12.0964 21.6886 11.9688 22.4022 11.9688C23.3501 11.9688 24.1496 12.1406 24.8006 12.4844C25.4569 12.8281 25.9647 13.3021 26.3241 13.9062C26.6886 14.5104 26.9074 15.1978 26.9803 15.9688H24.6366C24.6105 15.5103 24.5194 15.1224 24.3631 14.8047C24.2069 14.4818 23.9699 14.2396 23.6522 14.0781C23.3397 13.9115 22.923 13.8281 22.4022 13.8281C22.0116 13.8281 21.6704 13.901 21.3787 14.0469C21.0871 14.1927 20.8423 14.4141 20.6444 14.7109C20.4465 15.0078 20.298 15.3828 20.1991 15.8359C20.1053 16.2839 20.0584 16.8099 20.0584 17.4141V18.2188C20.0584 18.8073 20.1027 19.3254 20.1912 19.7733C20.2798 20.216 20.4152 20.591 20.5975 20.8983C20.785 21.2004 21.0246 21.4296 21.3162 21.5858C21.6131 21.7369 21.9699 21.8125 22.3866 21.8125C22.8761 21.8125 23.2798 21.7344 23.5975 21.5781C23.9152 21.4219 24.1574 21.19 24.3241 20.8827C24.4959 20.5754 24.5975 20.1927 24.6287 19.7344Z" fill="white"/>
</svg>
