<svg width="16" height="16" viewBox="0 0 16 16" fill="none" xmlns="http://www.w3.org/2000/svg">
<path fill-rule="evenodd" clip-rule="evenodd" d="M10.6667 0V2.00067H12V8.66733H16V16H0V8.66733H4V2.00067H5.33333V0H10.6667ZM10.7333 3.26667H5.26667V14.7333H10.7333V3.26667ZM14.7333 9.93333H12V14.7333H14.7333V9.93333ZM4 9.93333H1.26667V14.7333H4V9.93333ZM13.9999 12.0002V12.6669H12.6666V12.0002H13.9999ZM3.33393 12.0002V12.6669H1.99993V12.0002H3.33393ZM13.9999 10.6669V11.3335H12.6666V10.6669H13.9999ZM3.33393 10.6669V11.3335H1.99993V10.6669H3.33393ZM9.99993 9.33353V10.0002H5.99993V9.33353H9.99993ZM9.99993 8.0002V8.66687H5.99993V8.0002H9.99993ZM9.99993 6.6662V7.33353H5.99993V6.6662H9.99993ZM9.99993 5.33353V6.0002H5.99993V5.33353H9.99993ZM9.4 1.26667H6.6V2.00067H9.4V1.26667Z" fill="#6D7881"/>
</svg>
