<svg width="16" height="16" viewBox="0 0 16 16" fill="none" xmlns="http://www.w3.org/2000/svg">
<path fill-rule="evenodd" clip-rule="evenodd" d="M4.04743 0.666656L1.83399 2.88036L0.969697 2.01596L0 2.98577L1.34914 4.33507L1.83399 4.7989L2.31884 4.33507L5.01713 1.63647L4.04743 0.666656ZM7.23057 1.82621V3.17552H16V1.82621H7.23057ZM4.04743 6.06387L1.83399 8.27757L0.969697 7.41317L0 8.38298L1.34914 9.73229L1.83399 10.1961L2.31884 9.73229L5.01713 7.03368L4.04743 6.06387ZM7.23057 7.22343V8.57273H16V7.22343H7.23057ZM4.04743 11.4611L1.83399 13.6748L0.969697 12.8104L0 13.7802L1.34914 15.1295L1.83399 15.5933L2.31884 15.1295L5.01713 12.4309L4.04743 11.4611ZM7.23057 12.6206V13.9699H16V12.6206H7.23057Z" fill="#6D7881"/>
</svg>
