<svg width="8" height="8" viewBox="0 0 8 8" fill="none" xmlns="http://www.w3.org/2000/svg">
<path d="M4.10514 4.77156L1.43826 1.86216C1.2133 1.61674 0.831978 1.60015 0.586557 1.82512C0.573679 1.83692 0.561319 1.84928 0.549514 1.86216L0.501547 1.91449C0.27726 2.15917 0.27726 2.53472 0.501547 2.7794L3.63335 6.19602C3.87219 6.45658 4.27704 6.47419 4.5376 6.23535C4.55127 6.22281 4.56439 6.20969 4.57692 6.19602L7.70873 2.7794C7.93302 2.53472 7.93302 2.15917 7.70873 1.91449L7.66077 1.86216C7.4358 1.61674 7.05448 1.60015 6.80906 1.82512C6.79618 1.83692 6.78382 1.84928 6.77202 1.86216L4.10514 4.77156Z" fill="#6D7881"/>
</svg>
