<svg width="16" height="16" viewBox="0 0 16 16" fill="none" xmlns="http://www.w3.org/2000/svg">
<path fill-rule="evenodd" clip-rule="evenodd" d="M7.90246 0.781586C5.90709 0.781586 3.90558 1.57704 2.38282 3.16839C0.860285 4.75331 0.105164 6.84485 0.105164 8.93017C0.105164 11.0091 0.866432 13.0941 2.38282 14.6729C2.73294 15.0385 2.97243 15.2696 3.40224 15.2696C3.69068 15.2696 3.85641 15.1861 4.0959 14.8847C5.01675 13.7746 6.3797 13.0815 7.90246 13.0815C9.42521 13.0815 10.7882 13.7746 11.709 14.8847C11.9485 15.1861 12.1142 15.2696 12.4027 15.2696C12.8325 15.2696 13.072 15.0385 13.4221 14.6729C14.9385 13.0944 15.6997 11.0091 15.6997 8.93017C15.6997 6.84508 14.9448 4.75331 13.4221 3.16839C11.8993 1.57704 9.89782 0.781586 7.90246 0.781586V0.781586ZM7.90246 1.87231C9.64604 1.87231 11.1932 2.59095 12.2923 3.57267L11.8256 4.06664C11.623 4.26556 11.623 4.64408 11.8197 4.843C12.0161 5.04836 12.366 5.04192 12.5561 4.83656L13.0289 4.33616C13.999 5.51013 14.5453 6.93476 14.6498 8.39113H13.9744C13.6982 8.38492 13.4465 8.64777 13.4465 8.93017C13.4465 9.21901 13.6982 9.48186 13.9744 9.47565H14.6437C14.6437 11.0413 13.6245 12.9787 12.4152 14.1467C11.2977 12.8439 9.70136 11.9905 7.90246 11.9905C6.10377 11.9905 4.50726 12.8439 3.38972 14.1465C2.18021 12.9787 1.16124 11.041 1.16124 9.47542H1.83053C2.1069 9.48163 2.35846 9.21878 2.35846 8.92994C2.35846 8.64754 2.1069 8.38469 1.83053 8.3909H1.15509C1.25958 6.93453 1.80594 5.51013 2.77597 4.33593L3.2488 4.83633C3.43911 5.04169 3.79516 5.0479 3.98548 4.84277C4.18194 4.64385 4.18194 4.26533 3.97933 4.06641L3.51265 3.57244C4.61175 2.59095 6.15887 1.87231 7.90246 1.87231V1.87231ZM7.89653 2.94372C7.62016 2.95016 7.37453 3.21324 7.38068 3.50184V6.83174C6.49033 7.07573 5.82126 7.92246 5.82126 8.92994C5.82126 10.1232 6.76055 11.1052 7.90246 11.1052C9.04436 11.1052 9.98365 10.1232 9.98365 8.92994C9.98365 7.92269 9.31436 7.07573 8.42424 6.83174V3.50207C8.43038 3.2068 8.17246 2.94372 7.89653 2.94372V2.94372ZM7.90246 7.84589C8.4857 7.84589 8.94009 8.3272 8.94009 8.93017C8.94009 9.53958 8.48592 10.0209 7.90246 10.0209C7.31899 10.0209 6.86482 9.53958 6.86482 8.93017C6.86482 8.3272 7.31921 7.84589 7.90246 7.84589V7.84589Z" fill="#6D7881"/>
</svg>
