<svg width="16" height="16" viewBox="0 0 16 16" fill="none" xmlns="http://www.w3.org/2000/svg">
<path fill-rule="evenodd" clip-rule="evenodd" d="M3.33333 7.27273C1.49238 7.27273 0 5.64467 0 3.63636C0 1.62806 1.49238 0 3.33333 0H12.6667C13.8576 -7.74352e-08 14.958 0.693087 15.5534 1.81818C16.1489 2.94328 16.1489 4.32945 15.5534 5.45455C14.958 6.57964 13.8576 7.27273 12.6667 7.27273H3.33333ZM12.6667 1.45455H3.33333C2.22876 1.45455 1.33333 2.43138 1.33333 3.63636C1.33333 4.84135 2.22876 5.81818 3.33333 5.81818H12.6667C13.7712 5.81818 14.6667 4.84135 14.6667 3.63636C14.6667 2.43138 13.7712 1.45455 12.6667 1.45455ZM12.6667 4.36364H12C11.6318 4.36364 11.3333 4.03803 11.3333 3.63636C11.3333 3.2347 11.6318 2.90909 12 2.90909H12.6667C13.0349 2.90909 13.3333 3.2347 13.3333 3.63636C13.3333 4.03803 13.0349 4.36364 12.6667 4.36364ZM3.33333 8.72727H12.6667C14.5076 8.72727 16 10.3553 16 12.3636C16 14.3719 14.5076 16 12.6667 16H3.33333C1.49238 16 0 14.3719 0 12.3636C0 10.3553 1.49238 8.72727 3.33333 8.72727ZM3.33333 14.5455H12.6667C13.7712 14.5455 14.6667 13.5686 14.6667 12.3636C14.6667 11.1587 13.7712 10.1818 12.6667 10.1818H3.33333C2.22876 10.1818 1.33333 11.1587 1.33333 12.3636C1.33333 13.5686 2.22876 14.5455 3.33333 14.5455ZM3.33333 11.6364H4C4.36819 11.6364 4.66667 11.962 4.66667 12.3636C4.66667 12.7653 4.36819 13.0909 4 13.0909H3.33333C2.96514 13.0909 2.66667 12.7653 2.66667 12.3636C2.66667 11.962 2.96514 11.6364 3.33333 11.6364Z" fill="#6D7881"/>
</svg>
