<svg width="16" height="16" viewBox="0 0 16 16" fill="none" xmlns="http://www.w3.org/2000/svg">
<path d="M13.4832 7.94578H8.38357V6.32745C8.38357 6.09114 8.18361 5.89981 7.93725 5.89981H7.93698C7.69035 5.89981 7.49066 6.0914 7.49066 6.32745V7.94578H2.39072H2.13056C1.7813 7.94578 1.49808 8.21715 1.49808 8.55179V8.80131V10.4194C1.49808 10.6557 1.69803 10.847 1.9444 10.847C2.19103 10.847 2.39072 10.6554 2.39072 10.4194V8.80131H7.49066V10.4196C7.49066 10.6559 7.69062 10.8473 7.93698 10.8473H7.93725C8.18388 10.8473 8.38357 10.6557 8.38357 10.4196V8.80131H13.4835V10.4194C13.4835 10.6557 13.6835 10.847 13.9298 10.847C14.1765 10.847 14.3762 10.6554 14.3762 10.4194V8.80131V8.55179C14.3762 8.21715 14.0929 7.94578 13.7437 7.94578H13.4832Z" fill="#6D7881"/>
<path fill-rule="evenodd" clip-rule="evenodd" d="M0.914654 12.2032H2.97388C3.47908 12.2032 3.88854 12.5955 3.88854 13.0795V15.0526C3.88854 15.5366 3.47908 15.9289 2.97388 15.9289H0.914654C0.409459 15.9289 0 15.5366 0 15.0526V13.0795C0 12.5955 0.409459 12.2032 0.914654 12.2032ZM1.46307 15.0732H2.42546C2.74025 15.0732 2.99563 14.8287 2.99536 14.5268V13.605C2.99536 13.3034 2.73998 13.0587 2.4252 13.0587H1.46307C1.14829 13.0587 0.892908 13.3034 0.892908 13.605V14.5268C0.892908 14.8285 1.14829 15.0732 1.46307 15.0732Z" fill="#6D7881"/>
<path fill-rule="evenodd" clip-rule="evenodd" d="M6.90724 12.2032H8.96647C9.47166 12.2032 9.88139 12.5955 9.88112 13.0795V15.0526C9.88112 15.5366 9.47166 15.9289 8.96647 15.9289H6.90724C6.40204 15.9289 5.99258 15.5366 5.99258 15.0526V13.0795C5.99258 12.5955 6.40204 12.2032 6.90724 12.2032ZM7.45592 15.0732H8.41805C8.7331 15.0732 8.98821 14.8287 8.98821 14.5268V13.605C8.98821 13.3034 8.73283 13.0587 8.41805 13.0587H7.45592C7.14114 13.0587 6.88576 13.3034 6.88576 13.605V14.5268C6.88576 14.8285 7.14114 15.0732 7.45592 15.0732Z" fill="#6D7881"/>
<path fill-rule="evenodd" clip-rule="evenodd" d="M12.9001 12.2032H14.9593C15.4645 12.2032 15.874 12.5955 15.874 13.0795V15.0526C15.874 15.5366 15.4645 15.9289 14.9593 15.9289H12.9001C12.3949 15.9289 11.9854 15.5366 11.9854 15.0526V13.0795C11.9854 12.5955 12.3949 12.2032 12.9001 12.2032ZM13.4488 15.0732H14.4109C14.7257 15.0732 14.9808 14.8287 14.9811 14.5268V13.605C14.9811 13.3034 14.7257 13.0587 14.4109 13.0587H13.4488C13.134 13.0587 12.8786 13.3034 12.8786 13.605V14.5268C12.8786 14.8285 13.134 15.0732 13.4488 15.0732Z" fill="#6D7881"/>
<path fill-rule="evenodd" clip-rule="evenodd" d="M5.34047 0H10.5335C11.1421 0 11.6356 0.472869 11.6356 1.05602V3.79032C11.6356 4.37347 11.1421 4.84634 10.5335 4.84634H5.34047C4.73185 4.84634 4.23833 4.37347 4.23833 3.79032V1.05602C4.23833 0.472869 4.73185 0 5.34047 0ZM5.7014 3.9908H10.1726C10.4874 3.9908 10.7425 3.74611 10.7427 3.4445V1.40184C10.7427 1.10023 10.4874 0.855536 10.1726 0.855536H5.7014C5.38662 0.855536 5.13123 1.10023 5.13123 1.40184V3.4445C5.13123 3.74611 5.38662 3.9908 5.7014 3.9908Z" fill="#6D7881"/>
</svg>
