<svg width="16" height="16" viewBox="0 0 16 16" fill="none" xmlns="http://www.w3.org/2000/svg">
<path fill-rule="evenodd" clip-rule="evenodd" d="M0 8C0 3.58868 3.58892 0 8 0C12.4111 0 16 3.58868 16 8C16 12.4113 12.4111 16 8 16C3.58892 16 0 12.4113 0 8ZM1.41282 8C1.41282 11.6322 4.36781 14.5872 8 14.5872C11.6322 14.5872 14.5872 11.6322 14.5872 8C14.5872 4.36781 11.6322 1.41282 8 1.41282C4.36781 1.41282 1.41282 4.36781 1.41282 8ZM12.1503 4.99578L12.1262 4.97115C12.1102 4.95468 12.1102 4.95467 12.0829 4.93065C11.8243 4.70982 11.4392 4.72647 11.2 4.97194L6.66565 9.62851L4.79899 7.72604C4.54471 7.46514 4.12756 7.46531 3.87271 7.72679C3.6221 7.9839 3.62217 8.39725 3.87299 8.65394L6.20473 11.0301C6.45787 11.2892 6.87754 11.2891 7.13103 11.0297L12.1271 5.89869C12.3633 5.65757 12.3785 5.27347 12.1645 5.01368C12.1617 5.01045 12.1594 5.0077 12.1503 4.99578Z" fill="#6D7881"/>
</svg>
