<svg width="16" height="16" viewBox="0 0 16 16" fill="none" xmlns="http://www.w3.org/2000/svg">
<path fill-rule="evenodd" clip-rule="evenodd" d="M4.72727 7.76643C6.13091 7.76643 7.27273 6.62262 7.27273 5.21654C7.27273 3.81046 6.13091 2.66666 4.72727 2.66666C3.32364 2.66666 2.18182 3.81046 2.18182 5.21654C2.18182 6.62262 3.32364 7.76643 4.72727 7.76643V7.76643ZM11.2727 8.49496C10.4 8.49496 9.04 8.76914 8 9.30136C6.96 8.76107 5.6 8.49496 4.72727 8.49496C3.14909 8.49496 0 9.36587 0 11.1157V13.3333H16V11.1157C16 9.36587 12.8509 8.49496 11.2727 8.49496V8.49496ZM8.36364 12.284H1.09091V11.1425C1.09091 10.6493 2.95273 9.54425 4.72727 9.54425C6.50182 9.54425 8.36364 10.6493 8.36364 11.1425V12.284V12.284ZM14.9091 12.284H9.45455V11.1425C9.45455 10.7224 9.30909 10.3571 9.07636 10.0283C9.71636 9.7543 10.5018 9.54425 11.2727 9.54425C13.0473 9.54425 14.9091 10.6493 14.9091 11.1425V12.284V12.284ZM4.72727 3.75946C5.52727 3.75946 6.18182 4.41515 6.18182 5.21654C6.18182 6.01793 5.52727 6.67362 4.72727 6.67362C3.92727 6.67362 3.27273 6.01793 3.27273 5.21654C3.27273 4.41515 3.92727 3.75946 4.72727 3.75946V3.75946ZM11.2727 7.76643C12.6764 7.76643 13.8182 6.62262 13.8182 5.21654C13.8182 3.81046 12.6764 2.66666 11.2727 2.66666C9.86909 2.66666 8.72727 3.81046 8.72727 5.21654C8.72727 6.62262 9.86909 7.76643 11.2727 7.76643V7.76643ZM11.2727 3.75946C12.0727 3.75946 12.7273 4.41515 12.7273 5.21654C12.7273 6.01793 12.0727 6.67362 11.2727 6.67362C10.4727 6.67362 9.81818 6.01793 9.81818 5.21654C9.81818 4.41515 10.4727 3.75946 11.2727 3.75946V3.75946Z" fill="#6D7881"/>
</svg>
