<svg width="16" height="16" viewBox="0 0 16 16" fill="none" xmlns="http://www.w3.org/2000/svg">
<path fill-rule="evenodd" clip-rule="evenodd" d="M8.00107 5.63684C6.69889 5.63684 5.63899 6.69603 5.63899 7.99821C5.63899 9.3004 6.69889 10.3596 8.00107 10.3596C9.30326 10.3596 10.3624 9.3004 10.3624 7.99821C10.3624 6.69603 9.30326 5.63684 8.00107 5.63684ZM8.00107 11.5324C6.05208 11.5324 4.46759 9.94649 4.46759 7.99821C4.46759 6.04994 6.05208 4.46402 8.00107 4.46402C9.95006 4.46402 11.5346 6.04994 11.5346 7.99821C11.5346 9.94649 9.95006 11.5324 8.00107 11.5324ZM7.35641 14.8336H8.64287L8.868 13.5021C8.90231 13.2748 9.07169 13.0897 9.29825 13.0333C9.77281 12.9111 10.2224 12.7238 10.6362 12.4772C10.8377 12.3593 11.0871 12.3686 11.2751 12.5044L12.3743 13.287L13.2863 12.375L12.503 11.2715C12.37 11.0836 12.36 10.8334 12.4765 10.634C12.7231 10.2202 12.9103 9.76995 13.0326 9.29539C13.089 9.07312 13.2734 8.90374 13.5014 8.86514L14.8336 8.64359L14.8365 7.35641L13.505 7.13128C13.2777 7.09626 13.0919 6.92759 13.0354 6.70032C12.9132 6.22718 12.726 5.77692 12.4808 5.36311C12.3622 5.16085 12.3722 4.90999 12.5073 4.72417L13.2891 3.62496L12.37 2.70514L11.2851 3.49917C11.0957 3.63282 10.8463 3.64354 10.6462 3.52562C10.2195 3.27404 9.75781 3.08465 9.27538 2.96386C9.05097 2.9074 8.88015 2.72158 8.84156 2.49073L8.61929 1.16925H7.33283L7.10484 2.51074C7.06481 2.73516 6.89757 2.91884 6.67602 2.97959C6.21075 3.09966 5.76192 3.28834 5.33953 3.54134C5.14084 3.65998 4.88784 3.64998 4.69844 3.51633L3.60495 2.73659L2.69299 3.64783L3.48274 4.75776C3.6171 4.9443 3.62925 5.19301 3.51275 5.39242C3.27047 5.80337 3.08679 6.25434 2.96672 6.73319C2.91026 6.95761 2.72515 7.12842 2.49359 7.16773L1.17139 7.39V8.67575L2.51289 8.90445C2.7373 8.94305 2.92098 9.111 2.98173 9.33256C3.10251 9.79926 3.29191 10.2481 3.54491 10.669C3.66284 10.8706 3.65212 11.1222 3.51919 11.3109L2.73945 12.4051L3.65855 13.3242L4.75991 12.5266C4.93429 12.3986 5.1973 12.3836 5.39384 12.4958C5.81123 12.7352 6.25149 12.9161 6.70389 13.0333C6.92616 13.0897 7.09555 13.2741 7.13414 13.5021L7.35641 14.8336ZM8.69076 16H7.30495C6.75821 16 6.2958 15.6083 6.20503 15.0695L6.03636 14.0524C5.72118 13.9502 5.41957 13.8259 5.13727 13.6829L4.28606 14.289C3.85795 14.5963 3.23259 14.5463 2.85451 14.1689L1.8768 13.1905C1.48872 12.8067 1.43726 12.2035 1.75602 11.7561L2.35136 10.9278C2.19627 10.6305 2.06477 10.3181 1.95971 9.99937L0.929111 9.82284C0.390941 9.73208 0 9.27038 0 8.72363V7.34212C0 6.79537 0.390941 6.33296 0.929111 6.24219L1.93326 6.07281C2.03475 5.74977 2.16268 5.43601 2.31277 5.13798L1.7067 4.28606C1.39009 3.84223 1.44012 3.23902 1.82677 2.85166L2.80806 1.87323C3.1797 1.4973 3.81436 1.44584 4.24389 1.75316L5.07437 2.35208C5.37455 2.19627 5.68687 2.06406 6.00348 1.96042L6.1793 0.929825C6.27007 0.391656 6.73248 0 7.27851 0H8.66074C9.20749 0 9.6699 0.391656 9.75995 0.93054L9.92933 1.93326C10.2581 2.0369 10.584 2.17055 10.9013 2.33278L11.7418 1.73386C12.1678 1.42654 12.7967 1.47657 13.1734 1.85465L14.1518 2.83236C14.5392 3.21615 14.5906 3.82007 14.2719 4.26676L13.6737 5.10511C13.8237 5.40028 13.9531 5.71332 14.0589 6.03708L15.0752 6.20932C15.6184 6.3008 16.0064 6.76393 15.9986 7.31067V8.69076C15.9986 9.2375 15.6083 9.69991 15.0695 9.79068L14.0532 9.96007C13.9538 10.2674 13.8237 10.5804 13.6665 10.8913L14.2661 11.7325C14.5827 12.1778 14.532 12.7817 14.1454 13.1676L13.1676 14.1461C12.786 14.5249 12.1585 14.5727 11.7318 14.2654L10.8942 13.6672C10.599 13.818 10.286 13.9474 9.96221 14.0524L9.78997 15.0695C9.6992 15.6083 9.23679 16 8.69076 16Z" fill="#6D7881"/>
</svg>
