<svg width="212" height="22" viewBox="0 0 212 22" fill="none" xmlns="http://www.w3.org/2000/svg">
<path d="M6.62 8.08C7.58 8.29333 8.33333 8.48667 8.88 8.66C9.44 8.83333 9.98 9.07333 10.5 9.38C11.02 9.67333 11.3867 10.04 11.6 10.48C11.8267 10.92 11.94 11.46 11.94 12.1C11.94 13.4467 11.4467 14.4733 10.46 15.18C9.47333 15.8733 8.26 16.22 6.82 16.22C5.06 16.22 3.68667 15.8133 2.7 15C1.72667 14.1867 1.12 13.12 0.88 11.8H2.56C3.02667 13.7067 4.43333 14.66 6.78 14.66C7.87333 14.66 8.72667 14.4467 9.34 14.02C9.95333 13.58 10.26 12.96 10.26 12.16C10.26 11.4533 9.98 10.9533 9.42 10.66C8.86 10.3667 7.8 10.0467 6.24 9.7C5.4 9.51333 4.71333 9.33333 4.18 9.16C3.66 8.98667 3.15333 8.76 2.66 8.48C2.18 8.18667 1.82667 7.82667 1.6 7.4C1.37333 6.96 1.26 6.44 1.26 5.84C1.26 4.57333 1.74 3.58 2.7 2.86C3.67333 2.14 4.86667 1.78 6.28 1.78C7.84 1.78 9.07333 2.12 9.98 2.8C10.8867 3.48 11.4733 4.38 11.74 5.5H10.06C9.5 4.06 8.24667 3.34 6.3 3.34C5.26 3.34 4.43333 3.56667 3.82 4.02C3.22 4.46 2.92 5.06667 2.92 5.84C2.92 6.41333 3.17333 6.84667 3.68 7.14C4.2 7.43333 5.18 7.74667 6.62 8.08ZM19.5125 4.78C21.0992 4.78 22.4392 5.32667 23.5325 6.42C24.6392 7.5 25.1925 8.86 25.1925 10.5C25.1925 12.14 24.6458 13.5067 23.5525 14.6C22.4592 15.68 21.1125 16.22 19.5125 16.22C17.9258 16.22 16.5858 15.6733 15.4925 14.58C14.3992 13.4867 13.8525 12.1267 13.8525 10.5C13.8525 8.87333 14.3992 7.51333 15.4925 6.42C16.5992 5.32667 17.9392 4.78 19.5125 4.78ZM22.3525 7.54C21.5792 6.75333 20.6325 6.36 19.5125 6.36C18.3925 6.36 17.4458 6.75333 16.6725 7.54C15.9125 8.31333 15.5325 9.3 15.5325 10.5C15.5325 11.7 15.9125 12.6933 16.6725 13.48C17.4458 14.2533 18.3925 14.64 19.5125 14.64C20.6458 14.64 21.5925 14.2533 22.3525 13.48C23.1258 12.6933 23.5125 11.7 23.5125 10.5C23.5125 9.3 23.1258 8.31333 22.3525 7.54ZM27.7509 16V0.599999H29.4109V16H27.7509ZM37.4998 4.78C39.2065 4.78 40.5665 5.36 41.5798 6.52C42.5932 7.68 43.0665 9.17333 42.9998 11H33.5798C33.6598 12.1333 34.0665 13.0267 34.7998 13.68C35.5332 14.3333 36.4598 14.66 37.5798 14.66C39.2198 14.66 40.3665 14.02 41.0198 12.74H42.7398C42.2865 13.8733 41.5998 14.74 40.6798 15.34C39.7598 15.9267 38.7065 16.22 37.5198 16.22C35.8798 16.22 34.5265 15.6933 33.4598 14.64C32.4065 13.5733 31.8798 12.2067 31.8798 10.54C31.8798 8.87333 32.4065 7.5 33.4598 6.42C34.5132 5.32667 35.8598 4.78 37.4998 4.78ZM37.4998 6.34C36.5132 6.34 35.6732 6.62667 34.9798 7.2C34.2998 7.77333 33.8598 8.52 33.6598 9.44H41.1998C41.0132 8.50667 40.5932 7.76 39.9398 7.2C39.2865 6.62667 38.4732 6.34 37.4998 6.34ZM51.0053 4.78C51.2453 4.78 51.472 4.79333 51.6853 4.82V6.52C51.4453 6.49333 51.212 6.48 50.9853 6.48C49.7986 6.48 48.852 6.86 48.1453 7.62C47.4386 8.36667 47.0853 9.42667 47.0853 10.8V16H45.4253V5H47.0853V7.46C47.8053 5.67333 49.112 4.78 51.0053 4.78ZM62.5098 5H64.1698V16H62.5098V13.78C62.0698 14.54 61.4832 15.14 60.7498 15.58C60.0298 16.0067 59.2032 16.22 58.2698 16.22C56.7765 16.22 55.5432 15.6867 54.5698 14.62C53.6098 13.54 53.1298 12.1667 53.1298 10.5C53.1298 8.83333 53.6098 7.46667 54.5698 6.4C55.5432 5.32 56.7765 4.78 58.2698 4.78C59.2032 4.78 60.0365 5 60.7698 5.44C61.5032 5.88 62.0832 6.48667 62.5098 7.26V5ZM58.5898 14.64C59.7232 14.64 60.6632 14.2533 61.4098 13.48C62.1565 12.6933 62.5298 11.7 62.5298 10.5C62.5298 9.3 62.1565 8.31333 61.4098 7.54C60.6632 6.75333 59.7232 6.36 58.5898 6.36C57.4698 6.36 56.5565 6.75333 55.8498 7.54C55.1565 8.31333 54.8098 9.3 54.8098 10.5C54.8098 11.7133 55.1632 12.7067 55.8698 13.48C56.5765 14.2533 57.4832 14.64 58.5898 14.64ZM79.0206 2C80.5406 2 81.7273 2.42 82.5806 3.26C83.434 4.08667 83.8606 5.16 83.8606 6.48C83.8606 7.81333 83.4273 8.90667 82.5606 9.76C81.7073 10.6133 80.5273 11.04 79.0206 11.04H75.0606V16H73.4006V2H79.0206ZM78.9606 9.46C80.014 9.46 80.814 9.18 81.3606 8.62C81.9073 8.06 82.1806 7.35333 82.1806 6.5C82.1806 5.64667 81.9073 4.94667 81.3606 4.4C80.814 3.85333 80.014 3.58 78.9606 3.58H75.0606V9.46H78.9606ZM91.8452 4.78C92.0852 4.78 92.3118 4.79333 92.5252 4.82V6.52C92.2852 6.49333 92.0518 6.48 91.8252 6.48C90.6385 6.48 89.6918 6.86 88.9852 7.62C88.2785 8.36667 87.9252 9.42667 87.9252 10.8V16H86.2652V5H87.9252V7.46C88.6452 5.67333 89.9518 4.78 91.8452 4.78ZM99.5516 4.78C101.138 4.78 102.478 5.32667 103.572 6.42C104.678 7.5 105.232 8.86 105.232 10.5C105.232 12.14 104.685 13.5067 103.592 14.6C102.498 15.68 101.152 16.22 99.5516 16.22C97.9649 16.22 96.6249 15.6733 95.5316 14.58C94.4382 13.4867 93.8916 12.1267 93.8916 10.5C93.8916 8.87333 94.4382 7.51333 95.5316 6.42C96.6382 5.32667 97.9782 4.78 99.5516 4.78ZM102.392 7.54C101.618 6.75333 100.672 6.36 99.5516 6.36C98.4316 6.36 97.4849 6.75333 96.7116 7.54C95.9516 8.31333 95.5716 9.3 95.5716 10.5C95.5716 11.7 95.9516 12.6933 96.7116 13.48C97.4849 14.2533 98.4316 14.64 99.5516 14.64C100.685 14.64 101.632 14.2533 102.392 13.48C103.165 12.6933 103.552 11.7 103.552 10.5C103.552 9.3 103.165 8.31333 102.392 7.54ZM116.75 0.599999H118.41V16H116.75V13.78C116.323 14.54 115.743 15.14 115.01 15.58C114.277 16.0067 113.443 16.22 112.51 16.22C111.017 16.22 109.783 15.6867 108.81 14.62C107.85 13.54 107.37 12.1667 107.37 10.5C107.37 8.83333 107.85 7.46667 108.81 6.4C109.783 5.32 111.017 4.78 112.51 4.78C113.443 4.78 114.277 5 115.01 5.44C115.743 5.88 116.323 6.48667 116.75 7.26V0.599999ZM112.83 14.64C113.963 14.64 114.903 14.2533 115.65 13.48C116.397 12.6933 116.77 11.7 116.77 10.5C116.77 9.3 116.397 8.31333 115.65 7.54C114.903 6.75333 113.963 6.36 112.83 6.36C111.723 6.36 110.817 6.75333 110.11 7.54C109.403 8.31333 109.05 9.3 109.05 10.5C109.05 11.7133 109.403 12.7067 110.11 13.48C110.817 14.2533 111.723 14.64 112.83 14.64ZM129.083 5H130.743V16H129.083V13.82C128.256 15.42 126.949 16.22 125.163 16.22C123.936 16.22 122.976 15.8467 122.283 15.1C121.603 14.3533 121.263 13.3133 121.263 11.98V5H122.923V11.66C122.923 13.6467 123.829 14.64 125.643 14.64C126.723 14.64 127.563 14.28 128.163 13.56C128.776 12.84 129.083 11.8667 129.083 10.64V5ZM138.888 16.22C137.275 16.22 135.921 15.68 134.828 14.6C133.748 13.5067 133.208 12.14 133.208 10.5C133.208 8.86 133.748 7.5 134.828 6.42C135.921 5.32667 137.275 4.78 138.888 4.78C140.195 4.78 141.341 5.14667 142.328 5.88C143.315 6.61333 143.948 7.6 144.228 8.84H142.508C142.255 8.06667 141.801 7.45333 141.148 7C140.495 6.54667 139.741 6.32 138.888 6.32C137.728 6.32 136.768 6.71333 136.008 7.5C135.261 8.28667 134.888 9.28667 134.888 10.5C134.888 11.7133 135.261 12.7133 136.008 13.5C136.768 14.2867 137.728 14.68 138.888 14.68C139.741 14.68 140.488 14.4533 141.128 14C141.781 13.5467 142.241 12.9333 142.508 12.16H144.228C143.935 13.4133 143.295 14.4067 142.308 15.14C141.321 15.86 140.181 16.22 138.888 16.22ZM154.319 14.14L154.619 15.52C153.739 15.9867 152.745 16.22 151.639 16.22C150.425 16.22 149.465 15.84 148.759 15.08C148.052 14.3067 147.699 13.2133 147.699 11.8V6.56H145.579V5H147.699V2.36L149.359 2V5H154.299V6.56H149.359V11.72C149.359 13.6933 150.212 14.68 151.919 14.68C152.532 14.68 153.332 14.5 154.319 14.14ZM164.787 14.42H171.527V16H163.127V2H164.787V14.42ZM178.555 4.78C180.142 4.78 181.482 5.32667 182.575 6.42C183.682 7.5 184.235 8.86 184.235 10.5C184.235 12.14 183.689 13.5067 182.595 14.6C181.502 15.68 180.155 16.22 178.555 16.22C176.969 16.22 175.629 15.6733 174.535 14.58C173.442 13.4867 172.895 12.1267 172.895 10.5C172.895 8.87333 173.442 7.51333 174.535 6.42C175.642 5.32667 176.982 4.78 178.555 4.78ZM181.395 7.54C180.622 6.75333 179.675 6.36 178.555 6.36C177.435 6.36 176.489 6.75333 175.715 7.54C174.955 8.31333 174.575 9.3 174.575 10.5C174.575 11.7 174.955 12.6933 175.715 13.48C176.489 14.2533 177.435 14.64 178.555 14.64C179.689 14.64 180.635 14.2533 181.395 13.48C182.169 12.6933 182.555 11.7 182.555 10.5C182.555 9.3 182.169 8.31333 181.395 7.54ZM195.674 5H197.334V15.88C197.334 17.52 196.867 18.82 195.934 19.78C195.001 20.74 193.727 21.22 192.114 21.22C190.767 21.22 189.601 20.8733 188.614 20.18C187.627 19.4867 187.001 18.5133 186.734 17.26H188.454C188.681 18.0467 189.114 18.6533 189.754 19.08C190.407 19.52 191.181 19.74 192.074 19.74C193.221 19.74 194.107 19.4067 194.734 18.74C195.361 18.0867 195.674 17.1467 195.674 15.92V13.7C195.234 14.46 194.647 15.06 193.914 15.5C193.181 15.9267 192.354 16.14 191.434 16.14C189.941 16.14 188.707 15.6067 187.734 14.54C186.774 13.46 186.294 12.1 186.294 10.46C186.294 8.80667 186.774 7.44667 187.734 6.38C188.707 5.31333 189.941 4.78 191.434 4.78C192.341 4.78 193.167 5 193.914 5.44C194.661 5.88 195.247 6.48 195.674 7.24V5ZM191.754 14.56C192.874 14.56 193.807 14.1733 194.554 13.4C195.314 12.6267 195.694 11.6467 195.694 10.46C195.694 9.27333 195.314 8.29333 194.554 7.52C193.807 6.74667 192.874 6.36 191.754 6.36C190.647 6.36 189.741 6.74667 189.034 7.52C188.327 8.29333 187.974 9.27333 187.974 10.46C187.974 11.6467 188.327 12.6267 189.034 13.4C189.741 14.1733 190.647 14.56 191.754 14.56ZM205.509 4.78C207.095 4.78 208.435 5.32667 209.529 6.42C210.635 7.5 211.189 8.86 211.189 10.5C211.189 12.14 210.642 13.5067 209.549 14.6C208.455 15.68 207.109 16.22 205.509 16.22C203.922 16.22 202.582 15.6733 201.489 14.58C200.395 13.4867 199.849 12.1267 199.849 10.5C199.849 8.87333 200.395 7.51333 201.489 6.42C202.595 5.32667 203.935 4.78 205.509 4.78ZM208.349 7.54C207.575 6.75333 206.629 6.36 205.509 6.36C204.389 6.36 203.442 6.75333 202.669 7.54C201.909 8.31333 201.529 9.3 201.529 10.5C201.529 11.7 201.909 12.6933 202.669 13.48C203.442 14.2533 204.389 14.64 205.509 14.64C206.642 14.64 207.589 14.2533 208.349 13.48C209.122 12.6933 209.509 11.7 209.509 10.5C209.509 9.3 209.122 8.31333 208.349 7.54Z" fill="white"/>
</svg>
